<?xml version="1.0" encoding="UTF-8"?>
<svg xmlns="http://www.w3.org/2000/svg" width="1440" height="1024" viewBox="0 0 1440 1024" role="img" aria-label="主线合流真实分歧">
<defs><filter id="softShadow" x="-20%" y="-20%" width="140%" height="140%"><feDropShadow dx="0" dy="8" stdDeviation="12" flood-color="#111827" flood-opacity="0.08"/></filter><marker id="arrow" viewBox="0 0 10 10" refX="9" refY="5" markerWidth="7" markerHeight="7" orient="auto-start-reverse"><path d="M 0 0 L 10 5 L 0 10 z" fill="#CBD5E1"/></marker><style>
  .bg{fill:#F6F7F9}.surface{fill:#FFFFFF}.surface2{fill:#FAFBFC}.ink{fill:#111827}.muted{fill:#6B7280}.subtle{fill:#9CA3AF}.border{stroke:#E5E7EB;stroke-width:1}.border2{stroke:#D1D5DB;stroke-width:1}.accent{fill:#3366FF}.accentText{fill:#3366FF}.accentSoft{fill:#EAF0FF}.success{fill:#10B981}.successSoft{fill:#EAFBF4}.warning{fill:#F59E0B}.warningSoft{fill:#FFF7E6}.danger{fill:#EF4444}.dangerSoft{fill:#FEECEC}.purple{fill:#7C3AED}.purpleSoft{fill:#F2ECFF}.cyan{fill:#06B6D4}.cyanSoft{fill:#E9FBFF}.line{stroke:#CBD5E1;stroke-width:2}.thin{stroke:#E5E7EB;stroke-width:1}.dash{stroke-dasharray:6 6}.shadow{filter:url(#softShadow)}
  text{font-family:"Inter","Noto Sans SC","PingFang SC","Microsoft YaHei",Arial,sans-serif;dominant-baseline:alphabetic}
  .h1{font-size:28px;font-weight:700}.h2{font-size:20px;font-weight:700}.h3{font-size:16px;font-weight:700}.body{font-size:14px;font-weight:400}.small{font-size:12px}.tiny{font-size:11px}.nav{font-size:13px}.mono{font-family:"SFMono-Regular","Menlo","Consolas",monospace;font-size:12px}
</style></defs>
<g id="主线合流真实分歧">
<rect x="0" y="0" width="1440" height="1024" rx="0" class="bg" /><rect x="0" y="0" width="250" height="1024" rx="0" class="surface border" /><text x="32" y="46" class="h2 ink" text-anchor="start">AVG Studio</text><text x="32" y="70" class="small muted" text-anchor="start">互动影游创作工作台</text><rect x="24" y="96" width="202" height="48" rx="14" class="accentSoft" /><text x="44" y="126" class="small accentText" text-anchor="start">项目：未命名影游</text><rect x="20" y="166" width="210" height="36" rx="10" class="surface" /><text x="42" y="189" class="nav muted" text-anchor="start">01  总览</text><rect x="20" y="208" width="210" height="36" rx="10" class="surface" /><text x="42" y="231" class="nav muted" text-anchor="start">02  素材提取</text><rect x="20" y="250" width="210" height="36" rx="10" class="surface" /><text x="42" y="273" class="nav muted" text-anchor="start">03  改编策略</text><rect x="20" y="292" width="210" height="36" rx="10" class="surface" /><text x="42" y="315" class="nav muted" text-anchor="start">04  世界观</text><rect x="20" y="334" width="210" height="36" rx="10" class="surface" /><text x="42" y="357" class="nav muted" text-anchor="start">05  角色阵营</text><rect x="20" y="376" width="210" height="36" rx="10" class="accentSoft" /><text x="42" y="399" class="nav accentText" text-anchor="start">06  主线合流</text><rect x="20" y="418" width="210" height="36" rx="10" class="surface" /><text x="42" y="441" class="nav muted" text-anchor="start">07  变量规则</text><rect x="20" y="460" width="210" height="36" rx="10" class="surface" /><text x="42" y="483" class="nav muted" text-anchor="start">08  Storylet</text><rect x="20" y="502" width="210" height="36" rx="10" class="surface" /><text x="42" y="525" class="nav muted" text-anchor="start">09  选项后果</text><rect x="20" y="544" width="210" height="36" rx="10" class="surface" /><text x="42" y="567" class="nav muted" text-anchor="start">10  多人推演</text><rect x="20" y="586" width="210" height="36" rx="10" class="surface" /><text x="42" y="609" class="nav muted" text-anchor="start">11  审校修补</text><rect x="20" y="628" width="210" height="36" rx="10" class="surface" /><text x="42" y="651" class="nav muted" text-anchor="start">12  试玩预览</text><rect x="20" y="670" width="210" height="36" rx="10" class="surface" /><text x="42" y="693" class="nav muted" text-anchor="start">13  导出</text><line x1="250" y1="0" x2="250" y2="1024" class="thin"/><rect x="250" y="0" width="1190" height="76" rx="0" class="surface border" /><text x="282" y="48" class="h1 ink" text-anchor="start">主线合流 / 真实分歧</text><rect x="1010" y="24" width="120" height="30" rx="15" class="successSoft" /><circle cx="1024" cy="39.0" r="4" class="success"/><text x="1035" y="44.0" class="small success" text-anchor="start">草稿同步中</text><rect x="1150" y="22" width="110" height="34" rx="10" class="surface border" /><text x="1205.0" y="44.0" class="small ink" text-anchor="middle">预览</text><rect x="1276" y="22" width="120" height="34" rx="10" class="accent" /><text x="1336.0" y="44.0" class="small surface" text-anchor="middle">AI 总控</text><rect x="282" y="108" width="1084" height="294" rx="20" class="surface border shadow" /><text x="306" y="142" class="h3 ink" text-anchor="start">主线时间轴</text><text x="306" y="166" class="small muted" text-anchor="start">公共事件、分歧点、合流点必须可视化</text><circle cx="334" cy="250" r="10" class="accent"/><text x="334" y="220" class="h3 ink" text-anchor="middle">序章</text><rect x="292" y="274" width="84" height="26" rx="13" class="accentSoft" /><text x="306" y="292.0" class="small accentText" text-anchor="start">公共</text><line x1="352" y1="250" x2="471" y2="250" class="line" marker-end="url(#arrow)"/><circle cx="489" cy="250" r="10" class="accent"/><text x="489" y="220" class="h3 ink" text-anchor="middle">密信出现</text><rect x="447" y="274" width="84" height="26" rx="13" class="accentSoft" /><text x="461" y="292.0" class="small accentText" text-anchor="start">公共</text><line x1="507" y1="250" x2="626" y2="250" class="line" marker-end="url(#arrow)"/><circle cx="644" cy="250" r="10" class="accent"/><text x="644" y="220" class="h3 ink" text-anchor="middle">分歧 A</text><rect x="602" y="274" width="84" height="26" rx="13" class="accentSoft" /><text x="616" y="292.0" class="small accentText" text-anchor="start">真实</text><line x1="662" y1="250" x2="781" y2="250" class="line" marker-end="url(#arrow)"/><circle cx="799" cy="250" r="10" class="warning"/><text x="799" y="220" class="h3 ink" text-anchor="middle">夜谈</text><rect x="757" y="274" width="84" height="26" rx="13" class="surface2" /><text x="771" y="292.0" class="small ink" text-anchor="start">条件</text><line x1="817" y1="250" x2="936" y2="250" class="line" marker-end="url(#arrow)"/><circle cx="954" cy="250" r="10" class="accent"/><text x="954" y="220" class="h3 ink" text-anchor="middle">合流 1</text><rect x="912" y="274" width="84" height="26" rx="13" class="accentSoft" /><text x="926" y="292.0" class="small accentText" text-anchor="start">公共</text><line x1="972" y1="250" x2="1091" y2="250" class="line" marker-end="url(#arrow)"/><circle cx="1109" cy="250" r="10" class="warning"/><text x="1109" y="220" class="h3 ink" text-anchor="middle">反转</text><rect x="1067" y="274" width="84" height="26" rx="13" class="surface2" /><text x="1081" y="292.0" class="small ink" text-anchor="start">条件</text><line x1="1127" y1="250" x2="1246" y2="250" class="line" marker-end="url(#arrow)"/><circle cx="1264" cy="250" r="10" class="accent"/><text x="1264" y="220" class="h3 ink" text-anchor="middle">结局池</text><rect x="1222" y="274" width="84" height="26" rx="13" class="surface2" /><text x="1236" y="292.0" class="small ink" text-anchor="start">差异</text><rect x="282" y="438" width="610" height="450" rx="20" class="surface border shadow" /><text x="306" y="472" class="h3 ink" text-anchor="start">中段真实分歧矩阵</text><text x="306" y="496" class="small muted" text-anchor="start">每个合流点前必须有真实改变</text><rect x="314" y="500" width="546" height="302" rx="14" class="surface border" /><rect x="314" y="500" width="546" height="60.4" rx="14" class="surface2" /><text x="330" y="535.2" class="small muted" text-anchor="start">分歧</text><text x="466.5" y="535.2" class="small muted" text-anchor="start">改变谁</text><text x="603.0" y="535.2" class="small muted" text-anchor="start">开放/锁死</text><text x="739.5" y="535.2" class="small muted" text-anchor="start">是否真实</text><line x1="314" y1="560.4" x2="860" y2="560.4" class="thin"/><text x="330" y="595.6" class="small ink" text-anchor="start">公开密信</text><text x="466.5" y="595.6" class="small ink" text-anchor="start">A/B/C</text><text x="603.0" y="595.6" class="small ink" text-anchor="start">开放质询，锁死交易</text><text x="739.5" y="595.6" class="small ink" text-anchor="start">真实</text><line x1="314" y1="620.8" x2="860" y2="620.8" class="thin"/><text x="330" y="656.0" class="small ink" text-anchor="start">销毁账册</text><text x="466.5" y="656.0" class="small ink" text-anchor="start">全员</text><text x="603.0" y="656.0" class="small ink" text-anchor="start">开放追杀线</text><text x="739.5" y="656.0" class="small ink" text-anchor="start">真实</text><line x1="314" y1="681.2" x2="860" y2="681.2" class="thin"/><text x="330" y="716.4000000000001" class="small ink" text-anchor="start">隐瞒证词</text><text x="466.5" y="716.4000000000001" class="small ink" text-anchor="start">B/D</text><text x="603.0" y="716.4000000000001" class="small ink" text-anchor="start">锁死公共复盘</text><text x="739.5" y="716.4000000000001" class="small ink" text-anchor="start">真实</text><line x1="314" y1="741.6" x2="860" y2="741.6" class="thin"/><text x="330" y="776.8000000000001" class="small ink" text-anchor="start">假意合作</text><text x="466.5" y="776.8000000000001" class="small ink" text-anchor="start">A/C</text><text x="603.0" y="776.8000000000001" class="small ink" text-anchor="start">开放背叛节点</text><text x="739.5" y="776.8000000000001" class="small ink" text-anchor="start">真实</text><line x1="450.5" y1="500" x2="450.5" y2="802" class="thin"/><line x1="587.0" y1="500" x2="587.0" y2="802" class="thin"/><line x1="723.5" y1="500" x2="723.5" y2="802" class="thin"/><rect x="922" y="438" width="444" height="450" rx="20" class="surface border shadow" /><text x="946" y="472" class="h3 ink" text-anchor="start">合流点健康度</text><text x="946" y="496" class="small muted" text-anchor="start">防止强行汇合</text><text x="954" y="510" class="body ink" text-anchor="start">合流 1｜祠堂对质</text><rect x="954" y="526" width="280" height="10" rx="5" class="surface2" /><rect x="954" y="526" width="229.6" height="10" rx="5" class="success" /><text x="1254" y="534" class="small muted" text-anchor="start">82</text><text x="954" y="594" class="body ink" text-anchor="start">合流 2｜账册公审</text><rect x="954" y="610" width="280" height="10" rx="5" class="surface2" /><rect x="954" y="610" width="184.79999999999998" height="10" rx="5" class="warning" /><text x="1254" y="618" class="small muted" text-anchor="start">66</text><text x="954" y="678" class="body ink" text-anchor="start">终局｜雨夜真相</text><rect x="954" y="694" width="280" height="10" rx="5" class="surface2" /><rect x="954" y="694" width="117.6" height="10" rx="5" class="danger" /><text x="1254" y="702" class="small muted" text-anchor="start">42</text><rect x="954" y="774" width="336" height="62" rx="16" class="dangerSoft" /><text x="980" y="810" class="small danger" text-anchor="start">警告：合流 2 前缺少对 D 的差分影响</text><rect x="282" y="932" width="1084" height="60" rx="18" class="surface border shadow" /><text x="310" y="970" class="body muted" text-anchor="start">输入想法，例如：检查第 2 章是否存在伪分支，或把这个节点改成多人博弈……</text><rect x="1248" y="946" width="96" height="34" rx="10" class="accent" /><text x="1296.0" y="968.0" class="small surface" text-anchor="middle">发送</text>
</g>
</svg>